# xmcd
#
# Track frame offsets: 
#        150
#        24579
#        42584
#        66070
#        88186
#        109172
#        133311
#        155257
#        179474
#        208507
#        230494
#        251437
#        273435
#        292419
#        307073
#        327808
#
# Disc length: 4623 seconds
#
# Revision: 1
# Processed by: cddbd v1.5.2PL0 Copyright (c) Steve Scherf et al.
# Submitted via: ExactAudioCopy v1.0b3
#
DISCID=f4120d10
DTITLE=Lillo Thomas - Let Me Be Yours and All Of You
DYEAR=1984
DGENRE=R&B
TTITLE0=I Love It
TTITLE1=Trust Me
TTITLE2=Who Do You Think You Are?
TTITLE3=Just My Imagination (Running Away With Me)
TTITLE4=Hot Love
TTITLE5=(You're A) Good Girl
TTITLE6=Joy Of Your Love
TTITLE7=Let Me Be Yours
TTITLE8=Your Love's Got A Hold On Me
TTITLE9=Holding On
TTITLE10=Show Me
TTITLE11=Settle Down
TTITLE12=All Of You 
TTITLE13=My Girl
TTITLE14=Never Give You Up
TTITLE15=I Like Your Style
EXTD=
EXTT0=
EXTT1=
EXTT2=
EXTT3=
EXTT4=
EXTT5=
EXTT6=
EXTT7=
EXTT8=
EXTT9=
EXTT10=
EXTT11=
EXTT12=
EXTT13=
EXTT14=
EXTT15=
PLAYORDER=
